<svg id="圖層_1" data-name="圖層 1" xmlns="http://www.w3.org/2000/svg" viewBox="0 0 220.18 200.75"><defs><style>.cls-1{fill:#006098;}.cls-2{fill:#00416b;}.cls-3{fill:#6aaae4;}.cls-4{fill:#0071ce;}.cls-5{fill:#92c0e9;}</style></defs><path class="cls-1" d="M205.58,90.17c0-.16,0-.32-.05-.48l-.06-.32a3.68,3.68,0,0,0-.15-.47c0-.09-.06-.19-.1-.28s-.16-.31-.25-.46-.08-.15-.13-.22a5.08,5.08,0,0,0-.47-.57s0,0,0,0a4.13,4.13,0,0,0-.6-.49c-.06,0-.14-.08-.21-.13a4.09,4.09,0,0,0-.46-.25l-.28-.1a4.26,4.26,0,0,0-.47-.15l-.32-.06-.49,0h-.34l-.49,0-.31,0a4.26,4.26,0,0,0-2.88,2.34c-.05.11-.09.21-.13.32s-.09.26-.13.4-.05.19-.07.28a4.39,4.39,0,0,0-.07.72v.28c0,.07,0,.14,0,.21s0,.22,0,.33a.9.9,0,0,0,0,.16c0,.14.07.28.11.42s0,0,0,0a.72.72,0,0,1-.15.77L184,105.56a.69.69,0,0,1-.74.15h0l-.47-.14-.14,0a2.14,2.14,0,0,0-.35-.06h-.49a4.17,4.17,0,0,0-.71.07l-.29.07a2.4,2.4,0,0,0-.38.12,2.19,2.19,0,0,0-.33.12A4.25,4.25,0,0,0,178,108c0,.08-.06.15-.08.22a4.42,4.42,0,0,0-.15.48l-.06.25a4.18,4.18,0,0,0-.07.72v.12a4.6,4.6,0,0,0,.1.84.43.43,0,0,1,0,0c0,.13.07.27.12.4a.7.7,0,0,1-.15.73l-11.9,11.63-1,1a.74.74,0,0,1-.78.14,6.09,6.09,0,0,0-.61-.17l-.16,0a4.62,4.62,0,0,0-.66-.06,4.48,4.48,0,0,0-.64.06l-.16,0a3.77,3.77,0,0,0-.6.16.72.72,0,0,1-.76-.14L158.91,123l-11.8-11.71h0a.73.73,0,0,1-.16-.76s0,0,0-.06l.12-.41,0-.17c0-.11,0-.22,0-.33s0-.13,0-.2a2.62,2.62,0,0,0,0-.28,3.38,3.38,0,0,0-.07-.72l-.07-.28c0-.14-.08-.28-.13-.41l-.12-.31a4.26,4.26,0,0,0-3.76-2.45h-.21a4.48,4.48,0,0,0-.64.07l-.13,0a4,4,0,0,0-.7.21l-.17.08a5.21,5.21,0,0,0-.52.28l-.14.09a4.06,4.06,0,0,0-.55.46l-.11.11a4.14,4.14,0,0,0-.37.46l-.11.15a4.36,4.36,0,0,0-.35.64l0,.09a4.44,4.44,0,0,0-.19.62c0,.07,0,.13-.05.2a4.77,4.77,0,0,0-.07.76,4.23,4.23,0,0,0,.05.63l0,.16a4,4,0,0,0,.16.59.7.7,0,0,1-.16.74h0l-13.12,12.91a.71.71,0,0,1-.75.15h0a3.68,3.68,0,0,0-.47-.15l-.15,0a2.14,2.14,0,0,0-.35-.06l-.2,0h-.3a4.17,4.17,0,0,0-.71.08,2,2,0,0,0-.31.07l-.35.11-.36.14a4.25,4.25,0,0,0-2.13,2.19v0a3.63,3.63,0,0,0-.21.66c0,.06,0,.13,0,.19a3.48,3.48,0,0,0-.07.73.56.56,0,0,0,0,.13,3.57,3.57,0,0,0,.09.8s0,0,0,.06.06.25.1.38a.65.65,0,0,1-.16.71l-13,12.32h0a.74.74,0,0,1-.78.14h0c-.21-.07-.42-.13-.64-.18l-.16,0a3.84,3.84,0,0,0-.69-.07,4.76,4.76,0,0,0-.65.06l-.15,0a3.25,3.25,0,0,0-.61.17.73.73,0,0,1-.76-.15l-13.12-13a.73.73,0,0,1-.16-.76s0,0,0-.06.08-.27.11-.41a.86.86,0,0,0,0-.17,3.06,3.06,0,0,0,.05-.32c0-.07,0-.14,0-.2v-.28a4.18,4.18,0,0,0-.07-.72c0-.09,0-.18-.07-.27s-.08-.29-.13-.43l-.12-.29a4.25,4.25,0,0,0-3.76-2.46h-.21a4.62,4.62,0,0,0-.65.07h-.12a5.19,5.19,0,0,0-.7.22l-.17.08a4.3,4.3,0,0,0-.52.28l-.14.09a4.89,4.89,0,0,0-.55.45l-.11.12a3.44,3.44,0,0,0-.38.46l-.1.15a3.88,3.88,0,0,0-.35.63.3.3,0,0,1,0,.1,6.36,6.36,0,0,0-.19.62c0,.07,0,.13,0,.2a4.78,4.78,0,0,0-.08.76,4.05,4.05,0,0,0,.07.7,1,1,0,0,0,0,.17,4.71,4.71,0,0,0,.19.64h0a.74.74,0,0,1-.12.78h0l-3.34,3.57-9.77,10.47a.7.7,0,0,1-.74.18,1.67,1.67,0,0,0-.32-.08l-.11,0a3.77,3.77,0,0,0-.76-.08h-.16a4.77,4.77,0,0,0-.76.07l-.07,0a4.25,4.25,0,0,0-3.21,3.15,1.88,1.88,0,0,0-.06.31,3.87,3.87,0,0,0,0,.49c0,.12,0,.23,0,.35s0,.33,0,.49,0,.21.05.32a4.66,4.66,0,0,0,.16.49c0,.08,0,.17.09.26a3.65,3.65,0,0,0,.3.55c0,.05,0,.09.07.13a5.58,5.58,0,0,0,.49.6l.17.14a2.86,2.86,0,0,0,.43.35,1.5,1.5,0,0,0,.25.15,2.13,2.13,0,0,0,.42.23c.1.05.2.08.3.12l.45.14.33.07a3.73,3.73,0,0,0,.48,0h.34l.5,0,.31-.05a4.27,4.27,0,0,0,2.88-2.33,3.2,3.2,0,0,0,.16-.39c0-.11.07-.21.1-.32l.09-.35a4.17,4.17,0,0,0,.07-.71c0-.11,0-.23,0-.34a1.21,1.21,0,0,0,0-.19c0-.14,0-.28-.08-.41s0-.08,0-.11a4.16,4.16,0,0,0-.16-.5h0a.73.73,0,0,1,.13-.77L80,134.47l2.55-2.73a.72.72,0,0,1,.74-.21,2.3,2.3,0,0,0,.28.06l.22.06a4.17,4.17,0,0,0,.8.08,3.57,3.57,0,0,0,.65-.06l.15,0a6.09,6.09,0,0,0,.61-.17.71.71,0,0,1,.76.15h0l13.12,13h0a.73.73,0,0,1,.16.76s0,0,0,.06-.08.27-.11.41a1.22,1.22,0,0,0,0,.17c0,.11,0,.22,0,.33s0,.13,0,.2v.28a4.28,4.28,0,0,0,.07.72c0,.09,0,.18.07.27s.08.28.13.42.08.2.13.3a4.23,4.23,0,0,0,3.75,2.46h.21a3.49,3.49,0,0,0,.65-.06l.12,0a4.18,4.18,0,0,0,.71-.22l.16-.07a4.35,4.35,0,0,0,.52-.29l.14-.08a4.89,4.89,0,0,0,.56-.46.52.52,0,0,1,.1-.11,5.45,5.45,0,0,0,.38-.46l.1-.15a4,4,0,0,0,.35-.64.42.42,0,0,1,0-.1,4.06,4.06,0,0,0,.19-.62c0-.06,0-.13,0-.19a4.78,4.78,0,0,0,.08-.77,4.46,4.46,0,0,0-.09-.81l-.06-.22c0-.1,0-.19-.07-.29a.73.73,0,0,1,.21-.75l13-12.29a.73.73,0,0,1,.76-.13h0a3.68,3.68,0,0,0,.47.15h0a2.77,2.77,0,0,0,.5.1h.17l.35,0a4.17,4.17,0,0,0,.71-.07l.32-.07.33-.1.38-.15a4.27,4.27,0,0,0,2.12-2.13c0-.09.07-.18.1-.27s.1-.29.14-.44l.06-.26a4.17,4.17,0,0,0,.07-.71,2.71,2.71,0,0,0,0-.29c0-.07,0-.13,0-.19a1.86,1.86,0,0,0-.06-.34s0-.1,0-.14a3.64,3.64,0,0,0-.14-.47h0a.7.7,0,0,1,.15-.73h0l13.12-12.92h0a.72.72,0,0,1,.77-.14,4.21,4.21,0,0,0,.61.16.76.76,0,0,0,.16,0,3.55,3.55,0,0,0,1.3,0l.15,0a6.09,6.09,0,0,0,.61-.17.73.73,0,0,1,.76.15l5,4.92,8.33,8.26a.74.74,0,0,1,.15.77s0,0,0,0-.08.28-.11.42a.86.86,0,0,0,0,.17,3.06,3.06,0,0,0,0,.32c0,.07,0,.14,0,.2v.29a4.39,4.39,0,0,0,.07.72c0,.09.05.18.07.27s.08.28.13.42.08.2.13.3a4.25,4.25,0,0,0,3.75,2.46h.21a3.49,3.49,0,0,0,.65-.06l.12,0a4.07,4.07,0,0,0,.7-.22l.17-.07a4.35,4.35,0,0,0,.52-.29l.14-.08a4.06,4.06,0,0,0,.55-.46l.11-.11a5.45,5.45,0,0,0,.38-.46l.1-.15a4.45,4.45,0,0,0,.35-.64.42.42,0,0,1,0-.1,5.61,5.61,0,0,0,.19-.62c0-.06,0-.13,0-.19a4.78,4.78,0,0,0,.08-.77,3.77,3.77,0,0,0-.1-.83l-.06-.24c0-.1,0-.2-.08-.29a.7.7,0,0,1,.15-.73l13-12.67a.71.71,0,0,1,.75-.14h0a3.68,3.68,0,0,0,.47.15l.13,0,.37.07h.5a4.17,4.17,0,0,0,.71-.07l.3-.07.35-.11.36-.13a4.25,4.25,0,0,0,2.12-2.14c0-.09.07-.19.11-.28s.09-.28.13-.42l.06-.27a4.17,4.17,0,0,0,.07-.71c0-.1,0-.2,0-.3a1.21,1.21,0,0,0,0-.19,1.86,1.86,0,0,0-.06-.34s0-.1,0-.14a3.64,3.64,0,0,0-.14-.47h0a.68.68,0,0,1,.15-.73h0l13.14-13.07a.73.73,0,0,1,.77-.15h0l.44.13.17,0,.33,0h.49a4.18,4.18,0,0,0,.72-.07l.3-.08a2.29,2.29,0,0,0,.37-.12,2.55,2.55,0,0,0,.35-.14,4.23,4.23,0,0,0,2.33-2.87c0-.11,0-.21.05-.31s0-.33.05-.5Z" transform="translate(-20.4 -33.22)"/><path class="cls-2" d="M39.19,79.14" transform="translate(-20.4 -33.22)"/><path class="cls-1" d="M36.14,211.44a4.73,4.73,0,0,1,0,.58,1.41,1.41,0,0,1-.08.39.64.64,0,0,1-.14.22.31.31,0,0,1-.21.07h-6.8a.92.92,0,0,1-.63-.23.88.88,0,0,1-.26-.72V198.27a.31.31,0,0,1,.07-.21.59.59,0,0,1,.25-.15l.46-.09c.2,0,.44,0,.73,0a7.39,7.39,0,0,1,.74,0l.46.09a.55.55,0,0,1,.24.15.32.32,0,0,1,.08.21v11.94h4.66a.37.37,0,0,1,.21.06.51.51,0,0,1,.14.21,1.14,1.14,0,0,1,.08.38A4.62,4.62,0,0,1,36.14,211.44Z" transform="translate(-20.4 -33.22)"/><path class="cls-1" d="M50.8,211.57a4,4,0,0,1,.17.66.36.36,0,0,1-.09.36.74.74,0,0,1-.45.15c-.21,0-.5,0-.88,0l-.91,0a1.85,1.85,0,0,1-.5-.07.43.43,0,0,1-.24-.14.67.67,0,0,1-.12-.24l-1-3H41.21l-.94,2.91a1.11,1.11,0,0,1-.12.27.5.5,0,0,1-.24.17,1.68,1.68,0,0,1-.47.08c-.2,0-.47,0-.8,0a5.92,5.92,0,0,1-.82,0,.63.63,0,0,1-.41-.16.47.47,0,0,1-.09-.38,5.17,5.17,0,0,1,.18-.64l4.57-13.17a1.27,1.27,0,0,1,.16-.31.55.55,0,0,1,.3-.18,1.89,1.89,0,0,1,.55-.08c.24,0,.55,0,.94,0s.81,0,1.08,0a2.42,2.42,0,0,1,.63.08.61.61,0,0,1,.32.18,1.14,1.14,0,0,1,.16.35ZM44,200.69h0L41.88,207h4.21Z" transform="translate(-20.4 -33.22)"/><path class="cls-1" d="M62.9,208.25a4.29,4.29,0,0,1-.22,1.43,3.65,3.65,0,0,1-.6,1.14,3.93,3.93,0,0,1-.92.85,5.55,5.55,0,0,1-1.17.58,7.42,7.42,0,0,1-1.37.34,11.5,11.5,0,0,1-1.63.11H53.05a1,1,0,0,1-.64-.23.92.92,0,0,1-.26-.72V198.81a.92.92,0,0,1,.26-.73.94.94,0,0,1,.64-.22h3.73a9.57,9.57,0,0,1,2.31.23,4.45,4.45,0,0,1,1.59.69,3.06,3.06,0,0,1,1,1.18,4,4,0,0,1,.21,2.69,3.22,3.22,0,0,1-.4.86,3,3,0,0,1-.65.69,3.25,3.25,0,0,1-.88.48,4.15,4.15,0,0,1,1.17.4,3.29,3.29,0,0,1,1.55,1.8A3.94,3.94,0,0,1,62.9,208.25ZM59,202a2.29,2.29,0,0,0-.14-.81,1.53,1.53,0,0,0-.41-.59,2,2,0,0,0-.69-.36,4.25,4.25,0,0,0-1.12-.12H55.11V204H56.8a2.7,2.7,0,0,0,1-.16,1.74,1.74,0,0,0,.65-.42,1.69,1.69,0,0,0,.38-.63A2.13,2.13,0,0,0,59,202Zm.77,6.35a2.43,2.43,0,0,0-.17-.92,1.82,1.82,0,0,0-.51-.68,2.19,2.19,0,0,0-.85-.43,4.9,4.9,0,0,0-1.34-.15H55.11v4.22h2.18a3.57,3.57,0,0,0,1.06-.13,2.23,2.23,0,0,0,.75-.39,1.83,1.83,0,0,0,.49-.64A2.07,2.07,0,0,0,59.77,208.35Z" transform="translate(-20.4 -33.22)"/><path class="cls-1" d="M74.85,201.57c0,.17,0,.31,0,.41a1.11,1.11,0,0,1,0,.24.35.35,0,0,1-.08.11.17.17,0,0,1-.1,0l-.13,0-.19-.06a1.38,1.38,0,0,0-.26-.07,1.75,1.75,0,0,0-.35,0,1,1,0,0,0-.41.07.65.65,0,0,0-.28.24,1,1,0,0,0-.17.42,3,3,0,0,0,0,.64v.72h1.43a.23.23,0,0,1,.14,0,.3.3,0,0,1,.11.15,1.26,1.26,0,0,1,.07.28c0,.11,0,.26,0,.43a1.9,1.9,0,0,1-.09.69.27.27,0,0,1-.25.2H72.76v6.35a.2.2,0,0,1-.06.15.32.32,0,0,1-.17.11,1.81,1.81,0,0,1-.34.07l-.54,0-.53,0a1.94,1.94,0,0,1-.35-.07.32.32,0,0,1-.17-.11.25.25,0,0,1,0-.15v-6.35h-1a.26.26,0,0,1-.25-.2,1.9,1.9,0,0,1-.09-.69c0-.17,0-.32,0-.43a1.26,1.26,0,0,1,.07-.28.24.24,0,0,1,.25-.19h1v-.66a5.34,5.34,0,0,1,.16-1.4,2.36,2.36,0,0,1,.5-1,2,2,0,0,1,.86-.6,3.26,3.26,0,0,1,1.23-.21,3.34,3.34,0,0,1,.65.06,3.9,3.9,0,0,1,.49.12.88.88,0,0,1,.23.13.32.32,0,0,1,.1.16,1.05,1.05,0,0,1,.06.29C74.84,201.26,74.85,201.4,74.85,201.57Z" transform="translate(-20.4 -33.22)"/><path class="cls-1" d="M83.47,208.4a6.18,6.18,0,0,1-.26,1.83,4,4,0,0,1-.8,1.42,3.49,3.49,0,0,1-1.35.92,5,5,0,0,1-1.89.33,5.3,5.3,0,0,1-1.82-.29,3.25,3.25,0,0,1-1.28-.84,3.58,3.58,0,0,1-.76-1.37,6.46,6.46,0,0,1-.24-1.84,5.86,5.86,0,0,1,.27-1.83,3.71,3.71,0,0,1,.8-1.43,3.77,3.77,0,0,1,1.34-.92,5.89,5.89,0,0,1,3.71,0,3.11,3.11,0,0,1,1.28.84,3.44,3.44,0,0,1,.75,1.37A6.09,6.09,0,0,1,83.47,208.4Zm-2.28.09a5.85,5.85,0,0,0-.09-1.07,2.38,2.38,0,0,0-.31-.85,1.51,1.51,0,0,0-.59-.56,1.78,1.78,0,0,0-.91-.2,1.91,1.91,0,0,0-.86.18,1.53,1.53,0,0,0-.61.52,2.57,2.57,0,0,0-.36.84,4.66,4.66,0,0,0-.12,1.11,5.9,5.9,0,0,0,.1,1.07,2.94,2.94,0,0,0,.31.85,1.59,1.59,0,0,0,.59.56,2.23,2.23,0,0,0,1.78,0,1.53,1.53,0,0,0,.61-.52,2.5,2.5,0,0,0,.35-.83A4.75,4.75,0,0,0,81.19,208.49Z" transform="translate(-20.4 -33.22)"/><path class="cls-1" d="M90.26,205.29c0,.21,0,.38,0,.52a1.66,1.66,0,0,1,0,.31.34.34,0,0,1-.1.16.22.22,0,0,1-.14.05l-.16,0-.2-.07-.24-.07a1.29,1.29,0,0,0-.29,0,1,1,0,0,0-.37.08,1.43,1.43,0,0,0-.38.23,3.3,3.3,0,0,0-.41.42,7,7,0,0,0-.47.65v4.89a.2.2,0,0,1-.05.15.31.31,0,0,1-.18.11,1.81,1.81,0,0,1-.34.07l-.53,0-.54,0a2,2,0,0,1-.34-.07.4.4,0,0,1-.18-.11.25.25,0,0,1,0-.15v-7.84a.29.29,0,0,1,0-.16.32.32,0,0,1,.16-.1,1.11,1.11,0,0,1,.3-.07l.45,0,.46,0a.88.88,0,0,1,.29.07.28.28,0,0,1,.15.1.42.42,0,0,1,0,.16v1a6,6,0,0,1,.58-.72,2.92,2.92,0,0,1,.52-.45,1.85,1.85,0,0,1,.49-.24,2.05,2.05,0,0,1,.49-.06h.25l.27.05a1.49,1.49,0,0,1,.25.07.35.35,0,0,1,.15.08.23.23,0,0,1,.07.1.39.39,0,0,1,0,.14c0,.06,0,.15,0,.28S90.26,205.08,90.26,205.29Z" transform="translate(-20.4 -33.22)"/><path class="cls-1" d="M40.15,232.57a5.39,5.39,0,0,1,.17.66.41.41,0,0,1-.09.36.79.79,0,0,1-.45.15c-.22,0-.51,0-.88,0l-.92,0a1.83,1.83,0,0,1-.49-.07.46.46,0,0,1-.25-.14.9.9,0,0,1-.11-.24l-1-3H30.56l-.94,2.91a1.11,1.11,0,0,1-.12.27.5.5,0,0,1-.24.17,1.68,1.68,0,0,1-.47.08c-.21,0-.47,0-.8,0a6.09,6.09,0,0,1-.83,0,.65.65,0,0,1-.41-.16.47.47,0,0,1-.08-.38,3.64,3.64,0,0,1,.17-.64l4.58-13.17a1,1,0,0,1,.16-.31.56.56,0,0,1,.29-.18,1.91,1.91,0,0,1,.56-.08c.23,0,.55,0,.94,0s.81,0,1.08,0a2.4,2.4,0,0,1,.62.08.58.58,0,0,1,.32.18,1.14,1.14,0,0,1,.17.35Zm-6.82-10.88h0L31.22,228h4.21Z" transform="translate(-20.4 -33.22)"/><path class="cls-1" d="M45.25,233.28a.32.32,0,0,1-.08.21.55.55,0,0,1-.24.15,2.2,2.2,0,0,1-.46.09,5,5,0,0,1-.73,0,4.9,4.9,0,0,1-.73,0,2.18,2.18,0,0,1-.47-.09.55.55,0,0,1-.24-.15.32.32,0,0,1-.08-.21v-14a.32.32,0,0,1,.08-.21.53.53,0,0,1,.25-.15l.46-.09a7.18,7.18,0,0,1,.73,0c.29,0,.54,0,.73,0l.46.09a.55.55,0,0,1,.24.15.32.32,0,0,1,.08.21Z" transform="translate(-20.4 -33.22)"/><path class="cls-1" d="M53.38,227.93a2.28,2.28,0,0,1-.13.93.41.41,0,0,1-.4.26H48.08a.42.42,0,0,1-.41-.27,2.45,2.45,0,0,1-.13-.92,2.39,2.39,0,0,1,.13-.91.43.43,0,0,1,.41-.26h4.77a.45.45,0,0,1,.24.06.44.44,0,0,1,.16.19,1.1,1.1,0,0,1,.1.37A4.33,4.33,0,0,1,53.38,227.93Z" transform="translate(-20.4 -33.22)"/><path class="cls-1" d="M65.84,223.36a5.87,5.87,0,0,1-.39,2.22,4.26,4.26,0,0,1-1.14,1.62,4.91,4.91,0,0,1-1.83,1,8.4,8.4,0,0,1-2.55.35H58.69v4.73a.31.31,0,0,1-.07.21.59.59,0,0,1-.25.15,2.2,2.2,0,0,1-.46.09,4.9,4.9,0,0,1-.73,0,5,5,0,0,1-.73,0,2.18,2.18,0,0,1-.47-.09.55.55,0,0,1-.24-.15.38.38,0,0,1-.07-.21V219.94a1.07,1.07,0,0,1,.29-.81,1,1,0,0,1,.74-.27h3.49c.35,0,.69,0,1,0a9,9,0,0,1,1.14.17,5.14,5.14,0,0,1,1.35.49,3.81,3.81,0,0,1,1.16.9,3.71,3.71,0,0,1,.73,1.27A4.93,4.93,0,0,1,65.84,223.36Zm-3.16.22a2.67,2.67,0,0,0-.27-1.28,1.92,1.92,0,0,0-.68-.75,2.24,2.24,0,0,0-.84-.3,6.84,6.84,0,0,0-.91-.06H58.69v5H60a3.22,3.22,0,0,0,1.21-.2,2,2,0,0,0,.8-.54,2.29,2.29,0,0,0,.47-.84A3.27,3.27,0,0,0,62.68,223.58Z" transform="translate(-20.4 -33.22)"/><path class="cls-1" d="M81.53,226.11a11.15,11.15,0,0,1-.46,3.3,6.67,6.67,0,0,1-1.37,2.47,5.86,5.86,0,0,1-2.24,1.55,8.4,8.4,0,0,1-3.09.53,9.14,9.14,0,0,1-3-.45,5.19,5.19,0,0,1-2.15-1.38,5.77,5.77,0,0,1-1.29-2.37,11.69,11.69,0,0,1-.43-3.39,10.84,10.84,0,0,1,.45-3.24,6.72,6.72,0,0,1,1.37-2.45,6,6,0,0,1,2.24-1.55,8.25,8.25,0,0,1,3.1-.54,9,9,0,0,1,3,.45,5.29,5.29,0,0,1,2.16,1.38,6,6,0,0,1,1.3,2.34A11.13,11.13,0,0,1,81.53,226.11Zm-3.17.16a11.6,11.6,0,0,0-.18-2.13,4.57,4.57,0,0,0-.63-1.64,3,3,0,0,0-1.17-1.06,4,4,0,0,0-1.84-.37,3.76,3.76,0,0,0-1.86.42,3.39,3.39,0,0,0-1.2,1.12,4.57,4.57,0,0,0-.65,1.63,9.64,9.64,0,0,0-.19,2,11.93,11.93,0,0,0,.18,2.18,4.87,4.87,0,0,0,.62,1.66,2.83,2.83,0,0,0,1.17,1.05,4.21,4.21,0,0,0,1.85.36,3.76,3.76,0,0,0,1.86-.41,3.31,3.31,0,0,0,1.2-1.12,4.8,4.8,0,0,0,.65-1.66A9.94,9.94,0,0,0,78.36,226.27Z" transform="translate(-20.4 -33.22)"/><path class="cls-1" d="M99.39,232.93a1.19,1.19,0,0,1-.19.44.69.69,0,0,1-.36.25,2.27,2.27,0,0,1-.62.12q-.37,0-1,0t-1.05,0a2.19,2.19,0,0,1-.62-.12.6.6,0,0,1-.34-.25,1.4,1.4,0,0,1-.16-.44l-2.37-9.41h0l-2.25,9.41a1.33,1.33,0,0,1-.16.43.68.68,0,0,1-.33.26,2.11,2.11,0,0,1-.61.12c-.25,0-.59,0-1,0s-.8,0-1.06,0a2.2,2.2,0,0,1-.63-.12.61.61,0,0,1-.33-.25,1.39,1.39,0,0,1-.17-.44l-3.37-13a3.67,3.67,0,0,1-.12-.65.45.45,0,0,1,.13-.36.87.87,0,0,1,.47-.15c.22,0,.52,0,.91,0s.65,0,.86,0a1.29,1.29,0,0,1,.47.08.37.37,0,0,1,.22.18,1.09,1.09,0,0,1,.09.34l2.61,11.36h0l2.71-11.28a1.26,1.26,0,0,1,.12-.36.48.48,0,0,1,.25-.21,1.74,1.74,0,0,1,.49-.1c.2,0,.48,0,.82,0l.88,0a1.67,1.67,0,0,1,.5.1.51.51,0,0,1,.26.21,1.06,1.06,0,0,1,.13.37l2.8,11.28h0l2.6-11.33a3.09,3.09,0,0,1,.09-.31.45.45,0,0,1,.22-.21,1.51,1.51,0,0,1,.46-.1q.3,0,.84,0a7.73,7.73,0,0,1,.78,0,.68.68,0,0,1,.41.15.45.45,0,0,1,.11.37,4.08,4.08,0,0,1-.12.68Z" transform="translate(-20.4 -33.22)"/><path class="cls-1" d="M113.86,232.52a4.22,4.22,0,0,1,0,.55,1.34,1.34,0,0,1-.09.36.4.4,0,0,1-.14.2.28.28,0,0,1-.19.07H106a.85.85,0,0,1-.89-.95V219.81a.92.92,0,0,1,.26-.73.91.91,0,0,1,.63-.22h7.41a.41.41,0,0,1,.19,0,.44.44,0,0,1,.13.2,1.54,1.54,0,0,1,.09.37,4.45,4.45,0,0,1,0,.57,4.06,4.06,0,0,1,0,.54,1.54,1.54,0,0,1-.09.37.5.5,0,0,1-.13.2.33.33,0,0,1-.19.06h-5.3v3.62h4.49a.28.28,0,0,1,.19.07.49.49,0,0,1,.14.19,1.34,1.34,0,0,1,.09.36,4.16,4.16,0,0,1,0,.54,4.11,4.11,0,0,1,0,.55,1.26,1.26,0,0,1-.09.35.49.49,0,0,1-.14.19.33.33,0,0,1-.19.06h-4.49v4.19h5.35a.33.33,0,0,1,.19.06.45.45,0,0,1,.14.2,1.34,1.34,0,0,1,.09.36A4.28,4.28,0,0,1,113.86,232.52Z" transform="translate(-20.4 -33.22)"/><path class="cls-1" d="M127.53,233.31a.46.46,0,0,1,0,.21.31.31,0,0,1-.22.14,1.78,1.78,0,0,1-.5.08c-.22,0-.53,0-.91,0s-.58,0-.77,0a1.58,1.58,0,0,1-.45-.08.47.47,0,0,1-.23-.16.9.9,0,0,1-.12-.24L123,230c-.16-.38-.32-.71-.47-1a3.14,3.14,0,0,0-.51-.73,1.92,1.92,0,0,0-.65-.44,2.22,2.22,0,0,0-.85-.15h-.94v5.65a.31.31,0,0,1-.07.21.53.53,0,0,1-.25.15,2.07,2.07,0,0,1-.46.09,4.9,4.9,0,0,1-.73,0,5.07,5.07,0,0,1-.73,0,2.07,2.07,0,0,1-.46-.09.53.53,0,0,1-.25-.15.37.37,0,0,1-.06-.21V219.81a.92.92,0,0,1,.25-.73,1,1,0,0,1,.64-.22h3.84c.39,0,.71,0,1,0s.48,0,.68.06a6.4,6.4,0,0,1,1.62.43,4,4,0,0,1,1.21.81,3.33,3.33,0,0,1,.76,1.18,4.27,4.27,0,0,1,.27,1.57,4.47,4.47,0,0,1-.19,1.36,3.41,3.41,0,0,1-.56,1.09,3.62,3.62,0,0,1-.9.84,4.64,4.64,0,0,1-1.23.57,3.6,3.6,0,0,1,.62.39,3.25,3.25,0,0,1,.55.56,5,5,0,0,1,.49.74,9.43,9.43,0,0,1,.45,1l1.25,2.93c.11.29.19.5.23.63A1.23,1.23,0,0,1,127.53,233.31Zm-3.89-10.07a2.23,2.23,0,0,0-.33-1.24,1.84,1.84,0,0,0-1.09-.71,3.64,3.64,0,0,0-.53-.09,5.61,5.61,0,0,0-.8,0h-1.36v4.21h1.54a3.75,3.75,0,0,0,1.12-.15,2.42,2.42,0,0,0,.81-.44,1.88,1.88,0,0,0,.48-.67A2.41,2.41,0,0,0,123.64,223.24Z" transform="translate(-20.4 -33.22)"/><path class="cls-1" d="M138.54,232.52a4.22,4.22,0,0,1,0,.55,1.34,1.34,0,0,1-.09.36.4.4,0,0,1-.14.2.28.28,0,0,1-.19.07h-7.46a.85.85,0,0,1-.89-.95V219.81a.92.92,0,0,1,.26-.73.91.91,0,0,1,.63-.22H138a.41.41,0,0,1,.19,0,.44.44,0,0,1,.13.2,1.54,1.54,0,0,1,.09.37,4.45,4.45,0,0,1,0,.57,4.06,4.06,0,0,1,0,.54,1.54,1.54,0,0,1-.09.37.5.5,0,0,1-.13.2.33.33,0,0,1-.19.06h-5.3v3.62h4.49a.28.28,0,0,1,.19.07.41.41,0,0,1,.14.19,1.34,1.34,0,0,1,.09.36,4.16,4.16,0,0,1,0,.54,4.11,4.11,0,0,1,0,.55,1.26,1.26,0,0,1-.09.35.41.41,0,0,1-.14.19.33.33,0,0,1-.19.06h-4.49v4.19h5.35a.33.33,0,0,1,.19.06.45.45,0,0,1,.14.2,1.34,1.34,0,0,1,.09.36A4.28,4.28,0,0,1,138.54,232.52Z" transform="translate(-20.4 -33.22)"/><path class="cls-1" d="M153.53,226.06a10,10,0,0,1-.54,3.49,5.8,5.8,0,0,1-1.53,2.37,6.16,6.16,0,0,1-2.42,1.35,12.17,12.17,0,0,1-3.4.43h-3.55a1,1,0,0,1-.64-.23.91.91,0,0,1-.25-.72V219.81a.92.92,0,0,1,.25-.73,1,1,0,0,1,.64-.22h3.81a10.72,10.72,0,0,1,3.37.46,6.05,6.05,0,0,1,2.32,1.38A6,6,0,0,1,153,223,9,9,0,0,1,153.53,226.06Zm-3.12.1a7.68,7.68,0,0,0-.25-2,4.3,4.3,0,0,0-.79-1.57,3.7,3.7,0,0,0-1.4-1,5.66,5.66,0,0,0-2.24-.37H144.2v10.09h1.57a5.81,5.81,0,0,0,2.09-.32,3.47,3.47,0,0,0,1.42-1,4.2,4.2,0,0,0,.85-1.61A8.33,8.33,0,0,0,150.41,226.16Z" transform="translate(-20.4 -33.22)"/><path class="cls-1" d="M169.64,220.1a4.85,4.85,0,0,1,0,.58,1.43,1.43,0,0,1-.09.37.54.54,0,0,1-.14.2.28.28,0,0,1-.19.07h-4.85v4h4.55a.33.33,0,0,1,.19.06.54.54,0,0,1,.14.2,1.34,1.34,0,0,1,.09.36,4.73,4.73,0,0,1,0,.58,4.45,4.45,0,0,1,0,.57,1.63,1.63,0,0,1-.09.38.51.51,0,0,1-.14.21.33.33,0,0,1-.19.06h-4.55v5.53a.32.32,0,0,1-.07.22.5.5,0,0,1-.24.15,1.74,1.74,0,0,1-.47.1,6.68,6.68,0,0,1-1.46,0,1.66,1.66,0,0,1-.47-.1.55.55,0,0,1-.24-.15.33.33,0,0,1-.08-.22V219.81a.92.92,0,0,1,.26-.73.94.94,0,0,1,.64-.22h7a.33.33,0,0,1,.19.06.51.51,0,0,1,.14.21,1.41,1.41,0,0,1,.09.38A4.91,4.91,0,0,1,169.64,220.1Z" transform="translate(-20.4 -33.22)"/><path class="cls-1" d="M175.12,233.28a.31.31,0,0,1-.07.21.53.53,0,0,1-.25.15,2.07,2.07,0,0,1-.46.09,4.9,4.9,0,0,1-.73,0,5,5,0,0,1-.73,0,2.07,2.07,0,0,1-.46-.09.53.53,0,0,1-.25-.15.32.32,0,0,1-.08-.21v-14a.32.32,0,0,1,.08-.21.53.53,0,0,1,.25-.15l.47-.09a7.1,7.1,0,0,1,.72,0,7.18,7.18,0,0,1,.73,0l.46.09a.53.53,0,0,1,.25.15.31.31,0,0,1,.07.21Z" transform="translate(-20.4 -33.22)"/><path class="cls-1" d="M190.59,232.64a1.13,1.13,0,0,1-.09.47,1,1,0,0,1-.25.35.91.91,0,0,1-.36.2,1.59,1.59,0,0,1-.43.06h-1.29a2.78,2.78,0,0,1-.69-.08,1.36,1.36,0,0,1-.54-.29,2.69,2.69,0,0,1-.48-.58q-.22-.36-.51-.93l-3.69-6.94c-.22-.41-.44-.86-.66-1.34s-.42-.94-.59-1.39h0c0,.55.06,1.1.07,1.65s0,1.11,0,1.69v7.76a.37.37,0,0,1-.06.21.43.43,0,0,1-.22.15,1.29,1.29,0,0,1-.42.1,4.14,4.14,0,0,1-.67,0,4.22,4.22,0,0,1-.67,0,1.29,1.29,0,0,1-.41-.1.44.44,0,0,1-.21-.15.36.36,0,0,1,0-.21V219.94a1,1,0,0,1,.31-.81,1.16,1.16,0,0,1,.78-.27h1.61a3.15,3.15,0,0,1,.74.07,1.44,1.44,0,0,1,.53.25,1.82,1.82,0,0,1,.44.47,7.11,7.11,0,0,1,.43.76l2.89,5.42c.16.33.33.65.49,1s.33.63.48.95l.45.94.42.91h0c0-.53,0-1.09-.05-1.67s0-1.14,0-1.66v-7a.37.37,0,0,1,.07-.2.59.59,0,0,1,.23-.16,1.43,1.43,0,0,1,.43-.1,7.39,7.39,0,0,1,1.33,0,1.29,1.29,0,0,1,.41.1.47.47,0,0,1,.2.16.46.46,0,0,1,.05.2Z" transform="translate(-20.4 -33.22)"/><path class="cls-1" d="M203.7,220.1a4.39,4.39,0,0,1,0,.56,1.14,1.14,0,0,1-.08.38.44.44,0,0,1-.15.21.26.26,0,0,1-.18.07h-3.72v12a.32.32,0,0,1-.08.21.55.55,0,0,1-.24.15,2.18,2.18,0,0,1-.47.09,4.84,4.84,0,0,1-.72,0,5,5,0,0,1-.73,0,2.18,2.18,0,0,1-.47-.09.55.55,0,0,1-.24-.15.32.32,0,0,1-.08-.21v-12H192.8a.27.27,0,0,1-.2-.07.51.51,0,0,1-.14-.21,1.46,1.46,0,0,1-.08-.38,4.39,4.39,0,0,1,0-.56,4.91,4.91,0,0,1,0-.59,1.46,1.46,0,0,1,.08-.38.51.51,0,0,1,.14-.21.32.32,0,0,1,.2-.06h10.46a.3.3,0,0,1,.18.06.44.44,0,0,1,.15.21,1.14,1.14,0,0,1,.08.38A4.91,4.91,0,0,1,203.7,220.1Z" transform="translate(-20.4 -33.22)"/><path class="cls-1" d="M214.25,232.52a4.22,4.22,0,0,1,0,.55,1.07,1.07,0,0,1-.08.36.41.41,0,0,1-.15.2.26.26,0,0,1-.18.07h-7.46a1,1,0,0,1-.64-.23.91.91,0,0,1-.25-.72V219.81a.92.92,0,0,1,.25-.73,1,1,0,0,1,.64-.22h7.41a.35.35,0,0,1,.18,0,.45.45,0,0,1,.14.2,1.54,1.54,0,0,1,.09.37,4.45,4.45,0,0,1,0,.57,4.06,4.06,0,0,1,0,.54,1.54,1.54,0,0,1-.09.37.51.51,0,0,1-.14.2.28.28,0,0,1-.18.06h-5.3v3.62H213a.3.3,0,0,1,.19.07.49.49,0,0,1,.14.19,1.07,1.07,0,0,1,.08.36,4.16,4.16,0,0,1,0,.54,4.11,4.11,0,0,1,0,.55,1,1,0,0,1-.08.35.49.49,0,0,1-.14.19.35.35,0,0,1-.19.06h-4.49v4.19h5.35a.3.3,0,0,1,.18.06.46.46,0,0,1,.15.2,1.07,1.07,0,0,1,.08.36A4.28,4.28,0,0,1,214.25,232.52Z" transform="translate(-20.4 -33.22)"/><path class="cls-1" d="M226.83,231.45c0,.19,0,.35,0,.49a2.49,2.49,0,0,1,0,.34,1.18,1.18,0,0,1-.1.25.85.85,0,0,1-.18.23,2.28,2.28,0,0,1-.49.34,5.68,5.68,0,0,1-.88.4,8.2,8.2,0,0,1-1.19.31,7.38,7.38,0,0,1-1.45.13,7.76,7.76,0,0,1-2.76-.47,5.45,5.45,0,0,1-2.08-1.41,6.1,6.1,0,0,1-1.32-2.33,10.34,10.34,0,0,1-.46-3.26,10.51,10.51,0,0,1,.5-3.36,7,7,0,0,1,1.41-2.46,6,6,0,0,1,2.18-1.52,7.37,7.37,0,0,1,2.79-.51,6.59,6.59,0,0,1,1.19.1A7.12,7.12,0,0,1,225,219a5.54,5.54,0,0,1,.88.38,2.78,2.78,0,0,1,.55.38,1.72,1.72,0,0,1,.21.25.85.85,0,0,1,.09.27,3,3,0,0,1,.05.38c0,.14,0,.32,0,.54s0,.42,0,.58a2.39,2.39,0,0,1-.08.39.64.64,0,0,1-.14.22.34.34,0,0,1-.19.07.8.8,0,0,1-.43-.2,5.72,5.72,0,0,0-.68-.45,5.86,5.86,0,0,0-1-.45,4.37,4.37,0,0,0-1.38-.2,3.38,3.38,0,0,0-1.58.36,3.41,3.41,0,0,0-1.18,1,4.8,4.8,0,0,0-.74,1.63,8.27,8.27,0,0,0-.25,2.14,8.46,8.46,0,0,0,.27,2.27,4.34,4.34,0,0,0,.76,1.57,3.2,3.2,0,0,0,1.21.93,4,4,0,0,0,1.59.3,4.38,4.38,0,0,0,1.38-.19,5,5,0,0,0,1-.42c.28-.15.51-.29.69-.41a.86.86,0,0,1,.42-.18.34.34,0,0,1,.18,0,.36.36,0,0,1,.11.19,1.52,1.52,0,0,1,.07.38A6,6,0,0,1,226.83,231.45Z" transform="translate(-20.4 -33.22)"/><path class="cls-1" d="M240.59,233.28a.32.32,0,0,1-.08.21.55.55,0,0,1-.24.15,2.2,2.2,0,0,1-.46.09,5.07,5.07,0,0,1-.73,0,5.22,5.22,0,0,1-.74,0,2,2,0,0,1-.45-.09.53.53,0,0,1-.25-.15.31.31,0,0,1-.07-.21v-6H232v6a.31.31,0,0,1-.07.21.55.55,0,0,1-.24.15,2.2,2.2,0,0,1-.46.09,6.68,6.68,0,0,1-1.46,0,2.18,2.18,0,0,1-.47-.09.55.55,0,0,1-.24-.15.32.32,0,0,1-.08-.21v-14a.32.32,0,0,1,.08-.21.55.55,0,0,1,.24-.15l.47-.09c.19,0,.44,0,.73,0s.54,0,.73,0l.46.09a.55.55,0,0,1,.24.15.31.31,0,0,1,.07.21v5.45h5.55v-5.45a.31.31,0,0,1,.07-.21.53.53,0,0,1,.25-.15l.45-.09c.2,0,.45,0,.74,0s.53,0,.73,0l.46.09a.55.55,0,0,1,.24.15.32.32,0,0,1,.08.21Z" transform="translate(-20.4 -33.22)"/><circle class="cls-1" cx="200.74" cy="37.35" r="6.55"/><rect class="cls-3" x="38.38" y="22.42" width="13.1" height="79.88" rx="6.55"/><rect class="cls-4" x="38.38" y="127.36" width="13.1" height="21.07" rx="6.55"/><rect class="cls-3" x="57.58" y="12.28" width="13.1" height="69.46" rx="6.55"/><rect class="cls-3" x="77.05" y="5.57" width="13.1" height="95.74" rx="6.55"/><rect class="cls-4" x="57.58" y="106.79" width="13.1" height="45.17" rx="6.55"/><rect class="cls-4" x="77.05" y="125.75" width="13.1" height="53.74" rx="6.55"/><rect class="cls-3" x="96.52" width="13.1" height="82.86" rx="6.55"/><rect class="cls-4" x="96.52" y="107.29" width="13.1" height="51.48" rx="6.55"/><rect class="cls-3" x="115.98" y="5.57" width="13.1" height="58.12" rx="6.55"/><rect class="cls-4" x="115.98" y="88.12" width="13.1" height="61.88" rx="6.55"/><rect class="cls-3" x="135.61" y="2.73" width="13.1" height="80.43" rx="6.55"/><rect class="cls-4" x="135.61" y="107.59" width="13.1" height="43.39" rx="6.55"/><rect class="cls-3" x="154.92" y="10.42" width="13.1" height="53.85" rx="6.55"/><rect class="cls-4" x="154.92" y="88.71" width="13.1" height="50.76" rx="6.55"/><rect class="cls-3" x="174.39" y="26" width="13.1" height="18.92" rx="6.55"/><rect class="cls-4" x="174.39" y="69.36" width="13.1" height="60.92" rx="6.55"/><rect class="cls-1" x="194.19" y="49.02" width="13.1" height="50.12" rx="6.55"/><path class="cls-5" d="M38.8,90.57" transform="translate(-20.4 -33.22)"/><path class="cls-1" d="M25.14,53.06h0a6.28,6.28,0,0,1,6.28,6.28v68.07a6.28,6.28,0,0,1-6.28,6.28h0a6.82,6.82,0,0,1-6.82-6.82v-67a6.82,6.82,0,0,1,6.82-6.82Z"/><path class="cls-1" d="M32.41,117.16a2,2,0,0,0-3.93-.75L20.93,135.5a6.94,6.94,0,0,0-.47,2.43A6.83,6.83,0,0,0,21.2,142h0a6,6,0,0,0,11.21-2.8Z" transform="translate(-20.4 -33.22)"/><path class="cls-5" d="M38.88,89.41" transform="translate(-20.4 -33.22)"/></svg>